<svg id="logo" xmlns="http://www.w3.org/2000/svg" viewBox="-32 0 752 175" version="1.1">
	<g class="movL">
		<path id="path3024" fill="#000" class="tile" d="m0,173.75,97.5,0,0-173.42-97.5,0,0,173.42z"/>
		<path id="path3026" fill="#FFF" stroke="#fff" d="m22.812,42.825,0,75.791,34.971,0,0,15.21-50.571,0,0-91.001,15.605,0-0.0049,0z"/>
		<path id="path3028" fill="#FFF" stroke="#fff" d="m97.5,58.04,0-15.21-12.349,0-13.52,51.22,0,39.781,15.341,0,0-27.041,10.527,0,0-15.21-9.0962,0,7.7974-33.54,1.2989,0z"/>
	</g>
	<g>
		<path id="path3030" fill="#000" class="tile" d="m97.5,173.75,65,0,0-173.42-65,0,0,173.42z"/>
		<path id="path3032" fill="#FFF" stroke="#fff" d="m97.5,58.04,1.2989,0,7.8022,33.54-9.1011,0,0,15.21,10.533,0,0,27.041,15.336,0,0-39.781-13.52-51.22-12.349,0,0,15.21z"/>
	</g>
	<g class="movL">
		<path id="path3034" fill="#000" class="tile" d="m162.5,173.75,97.5,0,0-173.42-97.5,0,0,173.42z"/>
		<path id="path3036" fill="#FFF" stroke="#fff" d="m203.12,42.825,26.782,0c12.221,0,21.972,9.751,21.972,21.972v17.421c0,12.477-9.7512,22.1-21.972,22.1h-11.05v29.51h-15.73v-91.005zm32.759,21.318c0-3.379-2.8562-6.1075-6.4988-6.1075h-10.528v31.201h10.528c3.6425,0,6.4988-2.73,6.4988-5.9776v-19.116z"/>
	</g>
	<g  >
		<path id="path3038" fill="#000" class="tile" d="m259.99,173.75,65,0,0-173.42-65,0,0,173.42z"/>
		<path id="path3040" fill="#FFF" stroke="#fff" d="m304.85,42.825,13.525,51.22,0,39.781-15.341,0,0-27.036-21.065,0,0,27.04-15.336,0,0-39.78,13.52-51.225,24.692,0,0.005,0zm-11.06,15.21-2.5975,0-7.8025,33.54,18.202,0-7.8025-33.54z"/>
	</g>
	<g class="movL">
		<path id="path3042" fill="#000" class="tile" d="m324.99,173.75,97.5,0,0-173.42-97.5,0,0,173.42z"/>
		<path id="path3044" fill="#FFF" stroke="#fff" d="m383.38,42.825,0,91.001-16.25,0-15.991-43.55-4.55-15.469-0.5175,0,0.9075,15.991,0,43.028-15.341,0,0-91.001,16.25,0,15.864,43.032,4.81,15.859,0.5225,0-1.04-15.991,0-42.9,15.331,0,0.005,0z"/>
		<path id="path3046" fill="#FFF" stroke="#fff" d="m422.49,58.04,0-15.21-12.349,0-13.52,51.22,0,39.781,15.341,0,0-27.041,10.528,0,0-15.21-9.1012,0,7.8025-33.54,1.2988,0z"/>
	</g>
	<g>
		<path id="path3048" fill="#000" class="tile" d="m422.49,173.75,65,0,0-173.42-65,0,0,173.42z"/>
		<path id="path3050" fill="#FFF" stroke="#fff" d="m422.49,58.04,1.2988,0,7.8025,33.54-9.1012,0,0,15.21,10.532,0,0,27.041,15.338,0,0-39.781-13.521-51.22-12.349,0,0,15.21z"/>
		<path id="path3052" fill="#FFF" stroke="#fff" d="m477.81,110.3,0-44.071c0-5.23,4.1312-9.3208,9.6825-9.477v-15.225h-0.0638c-14.17,0-25.61,11.572-25.61,25.479v42.514c0,13.911,11.44,25.611,25.61,25.611h0.0638v-15.23c-5.5462-0.13625-9.6775-4.3599-9.6775-9.5899l-0.005-0.0102z"/>
	</g>
	<g class="movL" >
		<path id="path3054" fill="#000" class="tile" d="m487.49,173.75,97.5,0,0-173.42-97.5,0,0,173.42z"/>
		<path id="path3056" fill="#FFF" stroke="#fff" d="m576.09,42.825,0,15.21-32.5,0,0,20.669,29.644,0,0,15.21-29.644,0,0,24.702,33.54,0,0,15.21-49.921,0,0-91.001,48.876,0,0.005,0zm-33.81-7.153,15.47-20.151h20.025l-20.542,20.151h-14.956,0.005z"/>
		<path id="path3058" fill="#FFF" stroke="#fff" d="m497.58,110.43c0,5.3271-4.4238,9.4872-9.7512,9.4872-0.1125,0-0.215-0.01-0.3275-0.0151v15.225h0.45c14.302,0,25.225-11.567,25.225-25.479v-4.1601h-15.6v4.9414z"/>
		<path id="path3060" fill="#FFF" stroke="#fff" d="m487.82,56.741c5.3275,0,9.7512,4.6778,9.7512,11.699h15.6c0-15.991-10.922-26.909-25.225-26.909h-0.45375v15.23c0.1125-0.0087,0.22-0.0185,0.3325-0.0185l-0.005,0.0049z"/>
	</g>
	<g >
		<path id="path3062" fill="#000" class="tile" d="m584.99,173.75,65,0,0-173.42-65,0,0,173.42z"/>
		<path id="path3064" fill="#FFF" stroke="#fff" d="m640.24,42.825,0,15.21-30.938,0,0,20.669,28.214,0,0,15.21-28.214,0,0,24.702,31.851,0,0,15.21-47.32,0,0-91.001,46.411,0-0.005,0z"/>
	</g>
</svg>
