<svg id="logo" xmlns:rdf="http://www.w3.org/1999/02/22-rdf-syntax-ns#" xmlns="http://www.w3.org/2000/svg" viewBox="-32 0 752 175" version="1.1">
 <g class="movL">
  <path id="path3024" d="M32,0.34375v173.41h97.5v-66.97h-10.53v27.06h-15.35v-39.778l13.54-51.218h12.34v-42.5h-97.5zm7.219,42.468h15.593v75.808h34.969v15.19h-50.562v-90.998zm88.971,15.219l-7.78,33.563h9.09v-33.563h-1.31z" transform="translate(-32,0)"/>
 </g>
 <g>
  <path id="path3030" d="M129.5,0.34375v42.5h12.34l13.54,51.218v39.778h-15.35v-27.06h-10.53v66.97h65v-173.41h-65zm0,57.687v33.563h9.09l-7.78-33.563h-1.31z" transform="translate(-32,0)"/>
 </g>
 <g class="movL">
  <path id="path3034" d="M194.5,0.34375v173.41h97.5v-173.41h-97.5zm40.62,42.468h26.79c12.22,0,21.97,9.78,21.97,22v17.407c0,12.477-9.75,22.091-21.97,22.091h-11.07v29.5h-15.72v-90.998zm15.72,15.219v31.219h10.54c3.64,0,6.5-2.752,6.5-6v-19.094c0-3.379-2.86-6.125-6.5-6.125h-10.54z" transform="translate(-32,0)"/>
 </g>
 <g>
  <path id="path3038" d="M292,0.34375v173.41h65v-173.41h-65zm20.16,42.468h24.68l13.54,51.219v39.779h-15.35v-27.03h-21.06v27.06h-15.35v-39.778l13.54-51.25zm11.03,15.219l-7.81,33.531h18.21l-7.81-33.531h-2.59z" transform="translate(-32,0)"/>
 </g>
 <g class="movL">
  <path id="path3042" d="M357,0.34375v173.41h97.5v-66.97h-10.53v27.06h-15.35v-39.778l13.54-51.218h12.34v-42.5h-97.5zm6.62,42.468h16.26l15.87,43.032,4.81,15.876h0.53l-1.06-16.001v-42.907h15.35v90.998h-16.26l-16-43.529-4.53-15.469h-0.53l0.91,16v42.998h-15.35v-90.998zm89.57,15.219l-7.81,33.563h9.12v-33.563h-1.31z" transform="translate(-32,0)"/>
 </g>
 <g>
  <path id="path3048" d="M454.5,0.34375v42.5h12.34l13.54,51.218v39.778h-15.35v-27.06h-10.53v66.97h65v-38.63h-0.06c-14.17,0-25.63-11.68-25.63-25.59v-42.53c0-13.907,11.46-25.469,25.63-25.469h0.06v-41.187h-65zm65,56.406c-5.55,0.156-9.69,4.239-9.69,9.469v44.091c0,5.23,4.14,9.46,9.69,9.6v-63.16zm-65,1.281v33.563h9.09l-7.81-33.563h-1.28z" transform="translate(-32,0)"/>
 </g>
 <g class="movL">
  <path id="path3054" d="M519.5,0.34375v41.187h0.44c14.3,0,25.22,10.915,25.22,26.907h-15.6c0-7.022-4.42-11.688-9.75-11.688-0.11,0-0.2-0.009-0.31,0v63.16h0.34c5.33,0,9.75-4.15,9.75-9.47h-0.03v-4.94h15.63v4.16c0,13.91-10.95,25.46-25.25,25.46h-0.44v38.63h97.5v-173.41h-97.5zm70.25,15.187h20.03l-20.56,20.157h-14.94l15.47-20.157zm-30.53,27.281h48.87v15.219h-32.5v20.688h29.63v15.187h-29.63v24.714h33.53v15.19h-49.9v-90.998z" transform="translate(-32,0)"/>
 </g>
 <g>
  <path id="path3062" d="M617,0.34375v173.41h65v-173.41h-65zm8.84,42.468h46.41v15.219h-30.94v20.688h28.22v15.187h-28.22v24.714h31.85v15.19h-47.32v-90.998z" transform="translate(-32,0)"/>
 </g>
</svg>
